<svg width="150" height="150" viewBox="0 0 150 150" fill="none" xmlns="http://www.w3.org/2000/svg">
<path d="M116.953 20.625C93.9843 -9.84375 28.8281 12.8906 23.9062 10.7812C23.9062 10.7812 23.2031 15.2344 25.7812 18.0469C22.5 20.3906 18.5156 16.4062 18.5156 16.4062C18.5156 16.4062 14.2968 26.25 18.75 32.3437C11.7187 41.4844 20.1562 89.0625 20.1562 89.0625H127.734C127.734 89.0625 140.625 52.0312 125.859 26.4844C122.812 20.625 119.531 24.1406 116.953 20.625Z" fill="#DBB471"/>
<path d="M128.906 69.375C128.438 71.9531 127.969 74.2969 127.266 75.7031C126.094 78.0469 123.516 79.4531 123.516 79.4531C123.516 79.4531 124.219 74.5313 123.984 67.5C120.703 20.3906 106.875 42.8906 75 42.8906C43.125 42.8906 29.2969 20.3906 26.25 67.7344C26.0156 74.5313 26.7188 79.6875 26.7188 79.6875C26.7188 79.6875 24.1406 78.2813 22.9688 75.9375C22.2656 74.5313 21.7969 72.1875 21.3281 69.6094C17.1094 68.4375 11.9531 69.375 11.9531 81.7969C11.9531 89.5313 14.7656 95.625 23.9063 96.3281C27.8906 127.266 34.9219 132.188 58.125 143.203C63.9844 146.016 67.9688 145.313 75 145.313C82.0313 145.313 86.0156 146.016 92.1094 143.203C115.547 132.188 122.578 127.266 126.328 96.3281C135.469 95.625 138.281 89.2969 138.281 81.7969C138.281 69.375 132.891 68.4375 128.906 69.375" fill="#FFDD67"/>
<path d="M96.0938 114.609C96.0938 122.578 85.5469 126.562 75 126.562C64.4531 126.562 53.9062 122.578 53.9062 114.609C53.9062 114.609 53.9062 112.5 56.0156 112.5H93.9844C96.0937 112.5 96.0938 114.609 96.0938 114.609" fill="#937237"/>
<path d="M46.875 67.0312C35.1562 67.0312 30.4688 71.25 30.4688 75.4687C30.4688 79.6875 30.4688 85.7812 45.9375 85.7812C60.9375 85.7812 63.2812 83.9062 63.2812 77.5781C63.2812 73.3594 58.5938 67.0312 46.875 67.0312Z" fill="#F5F5F5"/>
<path d="M48.0469 84.6094C53.8718 84.6094 58.5938 79.8874 58.5938 74.0625C58.5938 68.2376 53.8718 63.5156 48.0469 63.5156C42.222 63.5156 37.5 68.2376 37.5 74.0625C37.5 79.8874 42.222 84.6094 48.0469 84.6094Z" fill="#0A84A5"/>
<path d="M51.5625 74.0625C51.5625 75.9375 49.9219 77.5781 48.0469 77.5781C46.1719 77.5781 44.5312 75.9375 44.5312 74.0625C44.5312 72.1875 46.1719 70.5469 48.0469 70.5469C49.9219 70.5469 51.5625 72.1875 51.5625 74.0625Z" fill="#231F20"/>
<path d="M30.4688 75.2344C30.4688 58.8281 63.2812 58.8281 63.2812 77.5781C58.5938 63.5156 35.1562 63.5156 30.4688 75.2344Z" fill="#664E27"/>
<path d="M103.125 67.0312C114.844 67.0312 119.531 71.25 119.531 75.4687C119.531 79.6875 119.531 85.7812 104.063 85.7812C89.0625 85.7812 86.7188 83.9062 86.7188 77.5781C86.7188 73.3594 91.4062 67.0312 103.125 67.0312Z" fill="#F5F5F5"/>
<path d="M101.953 84.6094C107.778 84.6094 112.5 79.8874 112.5 74.0625C112.5 68.2376 107.778 63.5156 101.953 63.5156C96.1282 63.5156 91.4062 68.2376 91.4062 74.0625C91.4062 79.8874 96.1282 84.6094 101.953 84.6094Z" fill="#0A84A5"/>
<path d="M98.4375 74.0625C98.4375 75.9375 100.078 77.5781 101.953 77.5781C103.828 77.5781 105.469 75.9375 105.469 74.0625C105.469 72.1875 103.828 70.5469 101.953 70.5469C100.078 70.5469 98.4375 72.1875 98.4375 74.0625Z" fill="#231F20"/>
<path d="M119.531 75.2344C119.531 58.8281 86.7188 58.8281 86.7188 77.5781C91.4062 63.5156 114.844 63.5156 119.531 75.2344Z" fill="#664E27"/>
<path d="M75 105.469C65.1563 105.469 60.2344 98.4375 65.1563 98.4375H84.8438C89.7657 98.4375 84.8438 105.469 75 105.469Z" fill="#EBA352"/>
</svg>
